HIERARCHY
ROOT Hips
{
	OFFSET 0.00000 0.00000 0.00000
	CHANNELS 6 Xposition Yposition Zposition Zrotation Yrotation Xrotation 
	JOINT LHipJoint
	{
		OFFSET 0 0 0
		CHANNELS 3 Zrotation Yrotation Xrotation
		JOINT LeftUpLeg
		{
			OFFSET 1.75344 -1.53157 0.77399
			CHANNELS 3 Zrotation Yrotation Xrotation
			JOINT LeftLeg
			{
				OFFSET 2.25415 -6.19323 0.00000
				CHANNELS 3 Zrotation Yrotation Xrotation
				JOINT LeftFoot
				{
					OFFSET 2.30342 -6.32861 0.00000
					CHANNELS 3 Zrotation Yrotation Xrotation
					JOINT LeftToeBase
					{
						OFFSET 0.10958 -0.30108 1.49206
						CHANNELS 3 Zrotation Yrotation Xrotation
						End Site
						{
							OFFSET 0.00000 -0.00000 0.77783
						}
					}
				}
			}
		}
	}
	JOINT RHipJoint
	{
		OFFSET 0 0 0
		CHANNELS 3 Zrotation Yrotation Xrotation
		JOINT RightUpLeg
		{
			OFFSET -1.81912 -1.53156 0.77399
			CHANNELS 3 Zrotation Yrotation Xrotation
			JOINT RightLeg
			{
				OFFSET -2.22882 -6.12365 0.00000
				CHANNELS 3 Zrotation Yrotation Xrotation
				JOINT RightFoot
				{
					OFFSET -2.21943 -6.09785 0.00000
					CHANNELS 3 Zrotation Yrotation Xrotation
					JOINT RightToeBase
					{
						OFFSET -0.18931 -0.52012 1.59379
						CHANNELS 3 Zrotation Yrotation Xrotation
						End Site
						{
							OFFSET -0.00000 -0.00000 0.84686
						}
					}
				}
			}
		}
	}
	JOINT LowerBack
	{
		OFFSET 0 0 0
		CHANNELS 3 Zrotation Yrotation Xrotation
		JOINT Spine
		{
			OFFSET -0.00200 1.66634 -0.14248
			CHANNELS 3 Zrotation Yrotation Xrotation
			JOINT Spine1
			{
				OFFSET -0.00875 1.64542 0.09514
				CHANNELS 3 Zrotation Yrotation Xrotation
				JOINT Neck
				{
					OFFSET 0 0 0
					CHANNELS 3 Zrotation Yrotation Xrotation
					JOINT Neck1
					{
						OFFSET 0.02257 1.59605 0.00839
						CHANNELS 3 Zrotation Yrotation Xrotation
						JOINT Head
						{
							OFFSET -0.10214 1.57530 -0.23335
							CHANNELS 3 Zrotation Yrotation Xrotation
							End Site
							{
								OFFSET -0.03588 1.60717 -0.08062
							}
						}
					}
				}
				JOINT LeftShoulder
				{
					OFFSET 0 0 0
					CHANNELS 3 Zrotation Yrotation Xrotation
					JOINT LeftArm
					{
						OFFSET 2.54983 1.10186 0.40078
						CHANNELS 3 Zrotation Yrotation Xrotation
						JOINT LeftForeArm
						{
							OFFSET 4.28840 -0.00000 0.00000
							CHANNELS 3 Zrotation Yrotation Xrotation
							JOINT LeftHand
							{
								OFFSET 3.06552 -0.00000 -0.00000
								CHANNELS 3 Zrotation Yrotation Xrotation
								JOINT LeftFingerBase
								{
									OFFSET 0 0 0
									CHANNELS 3 Zrotation Yrotation Xrotation
									JOINT LeftHandIndex1
									{
										OFFSET 0.75304 -0.00000 0.00000
										CHANNELS 3 Zrotation Yrotation Xrotation
										End Site
										{
											OFFSET 0.60712 -0.00000 0.00000
										}
									}
								}
								JOINT LThumb
								{
									OFFSET 0 0 0
									CHANNELS 3 Zrotation Yrotation Xrotation
									End Site
									{
										OFFSET 0.61639 -0.00000 0.61639
									}
								}
							}
						}
					}
				}
				JOINT RightShoulder
				{
					OFFSET 0 0 0
					CHANNELS 3 Zrotation Yrotation Xrotation
					JOINT RightArm
					{
						OFFSET -2.60909 1.35448 0.21802
						CHANNELS 3 Zrotation Yrotation Xrotation
						JOINT RightForeArm
						{
							OFFSET -4.52172 -0.00000 -0.00000
							CHANNELS 3 Zrotation Yrotation Xrotation
							JOINT RightHand
							{
								OFFSET -2.89140 -0.00000 0.00000
								CHANNELS 3 Zrotation Yrotation Xrotation
								JOINT RightFingerBase
								{
									OFFSET 0 0 0
									CHANNELS 3 Zrotation Yrotation Xrotation
									JOINT RightHandIndex1
									{
										OFFSET -0.68054 -0.00000 0.00000
										CHANNELS 3 Zrotation Yrotation Xrotation
										End Site
										{
											OFFSET -0.54867 -0.00000 0.00000
										}
									}
								}
								JOINT RThumb
								{
									OFFSET 0 0 0
									CHANNELS 3 Zrotation Yrotation Xrotation
									End Site
									{
										OFFSET -0.55705 -0.00000 0.55705
									}
								}
							}
						}
					}
				}
			}
		}
	}
}
MOTION
Frames: 5
Frame Time: .0083333
8.7235 16.4702 18.6977 -175.8700 -5.7725 190.7770 0.0000 0.0000 0.0000 -17.9573 -9.7684 -10.6618 3.0420 10.7628 31.4840 0.0450 2.2216 3.8449 1.9935 -8.8525 -25.3349 0.0000 0.0000 0.0000 26.0669 -2.4416 -10.6732 -2.2754 -9.4177 27.1108 0.6329 -20.2095 8.2848 -0.4276 -4.1966 11.6304 4.4170 1.8929 18.8486 0.5674 3.5314 -1.6042 -2.8888 1.3403 -12.1834 -3.1610 -0.9681 -15.8041 2.2094 -1.1824 -0.2677 1.1954 -0.6670 2.7170 0.0000 0.0000 0.0000 54.2443 -55.7498 -79.0379 42.5562 -49.5135 -20.3626 -0.0000 0.0000 -13.2969 29.1510 -59.0107 -25.5547 -7.1250 0.0000 -0.0000 -9.6395 -31.7049 13.3760 0.0000 0.0000 0.0000 -50.2935 53.6831 -66.4487 -46.1896 51.3381 -23.1640 0.0000 0.0000 17.7743 -10.6496 -42.6762 7.2640 7.1250 -0.0000 -0.0000 38.9021 -69.5321 -24.0815
8.6974 16.7449 18.4761 -176.0550 -6.3894 189.5550 0.0000 0.0000 0.0000 -18.5398 -11.0765 -6.2819 2.3095 9.4830 27.3181 0.1063 7.5424 7.3748 0.7897 -5.6728 -15.8380 0.0000 0.0000 0.0000 25.7509 -0.8991 -6.1435 -1.6549 -8.1070 23.0395 1.5002 -27.0442 8.2537 -1.4604 -7.6378 21.6191 4.4366 1.8992 17.9306 0.6849 3.4203 -0.6106 -2.6639 1.3445 -10.5426 -3.2207 -0.7938 -21.9053 1.7518 -0.7051 4.3773 0.9846 -0.4248 4.7823 0.0000 -0.0000 0.0000 54.3824 -54.4056 -78.5632 42.2110 -49.3266 -20.1004 -0.0000 0.0000 -13.3101 28.6796 -59.4874 -25.2330 -7.1250 0.0000 -0.0000 -10.0071 -31.9930 13.9102 0.0000 -0.0000 0.0000 -52.0279 51.8176 -66.5410 -45.9041 51.2038 -22.9413 0.0000 0.0000 18.0713 -11.6910 -42.4729 7.9541 7.1250 -0.0000 -0.0000 37.4390 -69.7214 -23.2383
8.6721 17.0207 18.2575 -176.2680 -6.9701 188.6360 0.0000 0.0000 0.0000 -19.3373 -13.9183 -2.0666 1.7728 8.3759 23.8616 -0.1882 14.9498 8.2511 0.0018 -0.2724 -0.7483 0.0000 0.0000 0.0000 25.6572 2.3047 -1.6534 -1.1992 -6.9483 19.5622 3.9815 -34.5934 -1.4608 -4.9241 -13.2978 40.4935 4.4484 1.8545 16.9567 0.8421 3.2922 -0.1996 -2.4103 1.3204 -9.5496 -3.8247 -0.6747 -24.8478 1.5321 -0.1861 7.1653 1.0710 -0.1891 6.1038 -0.0000 0.0000 0.0000 53.1339 -53.5359 -76.2897 41.8762 -49.1430 -19.8469 -0.0000 0.0000 -12.9093 29.2450 -60.0686 -25.8842 -7.1250 0.0000 -0.0000 -10.0759 -32.6506 14.0411 -0.0000 0.0000 0.0000 -53.0153 50.6703 -65.3968 -45.7837 51.1467 -22.8474 0.0000 0.0000 18.1865 -12.5107 -42.3413 8.5002 7.1250 -0.0000 -0.0000 36.3287 -69.8911 -22.6185
8.6505 17.2878 18.0501 -176.5480 -7.5335 188.0530 0.0000 0.0000 0.0000 -20.6546 -18.6824 2.0213 1.4493 7.6099 21.5353 -1.4382 23.4770 3.2478 1.2131 6.9868 19.6762 0.0000 0.0000 0.0000 25.9382 6.6450 2.4214 -0.9104 -6.0801 17.0170 4.8516 -35.7658 -19.8278 -8.6713 -16.5915 54.9464 4.3523 1.8028 15.9125 0.9900 3.1844 -0.3326 -2.1294 1.2979 -9.1264 -4.6800 -0.5594 -25.0857 1.6096 0.3132 8.5979 1.3010 0.0454 6.5961 0.0000 -0.0000 0.0000 51.1105 -53.2205 -72.9541 41.6051 -48.9926 -19.6421 -0.0000 0.0000 -11.9360 30.7327 -60.2122 -27.2926 -7.1250 0.0000 -0.0000 -9.6530 -33.1829 13.4670 0.0000 -0.0000 0.0000 -53.2667 50.0639 -63.0912 -45.8418 51.1743 -22.8927 0.0000 0.0000 17.8521 -12.1402 -42.3712 8.2489 7.1250 -0.0000 -0.0000 36.7766 -69.7921 -22.8447
8.6295 17.5457 17.8540 -176.8220 -8.2495 187.7200 0.0000 0.0000 0.0000 -22.7659 -25.1672 6.3378 1.3037 7.2334 20.4088 -2.5945 27.2669 -14.1091 8.3600 16.3778 53.8493 0.0000 0.0000 0.0000 26.6059 10.7052 5.6060 -0.7643 -5.5828 15.5787 1.9822 -31.1611 -33.5199 -10.4464 -17.6533 60.9702 4.2274 1.6970 14.7420 1.1070 3.0289 -0.9162 -1.8652 1.2433 -9.1244 -5.0756 -0.3518 -22.9415 1.3475 0.7084 8.8191 1.3229 0.2186 6.3299 -0.0000 -0.0000 0.0000 48.6794 -53.3917 -68.9490 41.4320 -48.8958 -19.5115 -0.0000 0.0000 -10.6190 32.5234 -60.0866 -28.9293 -7.1250 0.0000 -0.0000 -9.0099 -33.5859 12.5741 -0.0000 -0.0000 0.0000 -52.8890 49.9321 -60.1393 -46.2205 51.3526 -23.1881 0.0000 0.0000 16.8039 -10.9138 -42.4992 7.4219 7.1250 -0.0000 -0.0000 38.2969 -69.4875 -23.6322
